<?xml version="1.0" encoding="utf-8"?>
<!-- Generator: Adobe Illustrator 24.2.0, SVG Export Plug-In . SVG Version: 6.00 Build 0)  -->
<svg version="1.1" id="Camada_1" xmlns="http://www.w3.org/2000/svg" xmlns:xlink="http://www.w3.org/1999/xlink" x="0px" y="0px"
	 viewBox="0 0 39 39" style="enable-background:new 0 0 39 39;" xml:space="preserve">
<style type="text/css">
	.st0{fill:#0E90D0;}
</style>
<g>
	<path class="st0" d="M23.8,19.5c0.4,0,0.7-0.2,0.9-0.5c0.2-0.3,0.3-0.9,0.3-1.6v-2.5c0-0.7-0.1-1.2-0.3-1.6
		c-0.2-0.4-0.5-0.5-0.9-0.5c-0.4,0-0.7,0.2-0.9,0.5c-0.2,0.3-0.3,0.8-0.3,1.5v2.5c0,0.7,0.1,1.3,0.3,1.6
		C23.1,19.3,23.4,19.5,23.8,19.5z"/>
	<path class="st0" d="M22.1,24.9c-0.4,0-0.6,0.1-0.8,0.4C21.1,25.6,21,26,21,26.5c0,0.5,0.1,0.9,0.3,1.2c0.2,0.3,0.5,0.4,0.8,0.4
		c0.4,0,0.6-0.1,0.8-0.4c0.2-0.3,0.3-0.7,0.3-1.3c0-0.5-0.1-0.9-0.3-1.2C22.8,25,22.5,24.9,22.1,24.9z"/>
	<path class="st0" d="M11.4,26.9c-0.2,0.1-0.3,0.3-0.3,0.6c0,0.2,0.1,0.4,0.2,0.5c0.1,0.1,0.3,0.2,0.6,0.2c0.2,0,0.4-0.1,0.6-0.2
		c0.2-0.1,0.3-0.2,0.4-0.4v-0.9h-0.6C11.9,26.6,11.6,26.7,11.4,26.9z"/>
	<path class="st0" d="M35.3,23l3.7-3.5l-3.5-3.1l1.9-4.5l-4.2-1.4V5.6l-4.4,0.5l-1.9-4.7l-4,2.1L19.4,0l-2.8,3.5l-4.7-2.1l-1.2,4.5
		L5.6,5.6l0.5,4.7L1.4,12l2.1,4L0,19.5l3.5,3.1L1.4,27l4.4,1.4l-0.2,4.9l4.7-0.5l1.6,4.7l4.2-2.1l3.3,3.5l3-3.5l4.4,2.1l1.4-4.5
		l4.9,0.2l-0.2-4.7l4.4-1.6L35.3,23z M14.1,28.9H13c0-0.1-0.1-0.2-0.1-0.5c-0.3,0.4-0.8,0.5-1.3,0.5c-0.5,0-0.9-0.1-1.2-0.4
		c-0.3-0.3-0.5-0.6-0.5-1c0-0.5,0.2-0.9,0.6-1.2c0.4-0.3,0.9-0.4,1.6-0.4h0.7v-0.3c0-0.2-0.1-0.4-0.2-0.6c-0.1-0.2-0.3-0.2-0.6-0.2
		c-0.2,0-0.4,0.1-0.6,0.2c-0.2,0.1-0.2,0.3-0.2,0.5h-1.1c0-0.3,0.1-0.5,0.3-0.7c0.2-0.2,0.4-0.4,0.7-0.5c0.3-0.1,0.6-0.2,1-0.2
		c0.6,0,1,0.1,1.3,0.4c0.3,0.3,0.5,0.7,0.5,1.2v2.2C13.9,28.2,14,28.6,14.1,28.9L14.1,28.9z M19,28.9h-1.1v-3.1
		c0-0.3-0.1-0.5-0.2-0.7c-0.1-0.1-0.3-0.2-0.6-0.2c-0.4,0-0.8,0.2-1,0.6v3.4H15v-4.8h1l0,0.6c0.4-0.4,0.8-0.6,1.4-0.6
		c1,0,1.5,0.6,1.5,1.7V28.9z M19.2,21.1h-6.9v-1.5l3.2-3.4c0.8-0.9,1.2-1.6,1.2-2.1c0-0.4-0.1-0.8-0.3-1c-0.2-0.2-0.5-0.3-0.8-0.3
		c-0.4,0-0.6,0.2-0.9,0.5c-0.2,0.3-0.3,0.7-0.3,1.1H12c0-0.6,0.2-1.2,0.5-1.7c0.3-0.5,0.7-0.9,1.3-1.2s1.1-0.4,1.8-0.4
		c1.1,0,1.9,0.2,2.5,0.7c0.6,0.5,0.9,1.2,0.9,2.1c0,0.4-0.1,0.8-0.2,1.1c-0.1,0.4-0.4,0.8-0.7,1.2c-0.3,0.4-0.8,1-1.5,1.6l-1.3,1.5
		h3.9V21.1z M20.3,15.2c0-1.3,0.3-2.4,0.9-3.1c0.6-0.7,1.5-1.1,2.6-1.1c1.1,0,2,0.4,2.6,1.1c0.6,0.7,0.9,1.8,0.9,3.1V17
		c0,1.3-0.3,2.4-0.9,3.1c-0.6,0.7-1.5,1.1-2.5,1.1c-1.1,0-2-0.4-2.6-1.1c-0.6-0.7-0.9-1.8-0.9-3.1V15.2z M24.1,27.8
		c-0.2,0.4-0.4,0.7-0.8,0.9C23,28.9,22.6,29,22.1,29c-0.7,0-1.2-0.2-1.6-0.7c-0.4-0.5-0.6-1.1-0.6-1.8v-0.1c0-0.5,0.1-0.9,0.3-1.3
		c0.2-0.4,0.4-0.7,0.8-0.9c0.3-0.2,0.7-0.3,1.2-0.3c0.6,0,1.2,0.2,1.6,0.6c0.4,0.4,0.6,1,0.7,1.7l0,0.3C24.3,27,24.3,27.4,24.1,27.8
		z M28.5,28.6c-0.4,0.3-0.8,0.4-1.4,0.4c-0.4,0-0.7-0.1-1-0.2c-0.3-0.1-0.5-0.3-0.7-0.6c-0.2-0.2-0.3-0.5-0.3-0.8h1
		c0,0.3,0.1,0.5,0.3,0.6c0.2,0.1,0.4,0.2,0.7,0.2c0.3,0,0.5-0.1,0.6-0.2c0.1-0.1,0.2-0.3,0.2-0.4c0-0.2-0.1-0.3-0.2-0.4
		c-0.2-0.1-0.4-0.2-0.8-0.3c-0.4-0.1-0.7-0.2-0.9-0.3c-0.5-0.3-0.8-0.6-0.8-1.1c0-0.4,0.2-0.8,0.5-1c0.3-0.3,0.8-0.4,1.3-0.4
		c0.6,0,1,0.1,1.4,0.4c0.4,0.3,0.5,0.7,0.5,1.1h-1.1c0-0.2-0.1-0.4-0.2-0.5c-0.2-0.1-0.4-0.2-0.6-0.2c-0.2,0-0.4,0.1-0.6,0.2
		c-0.1,0.1-0.2,0.3-0.2,0.4c0,0.2,0.1,0.3,0.2,0.4c0.1,0.1,0.4,0.2,0.8,0.3c0.4,0.1,0.8,0.2,1,0.3c0.2,0.1,0.4,0.3,0.5,0.5
		c0.1,0.2,0.2,0.4,0.2,0.7C29,28,28.8,28.3,28.5,28.6z"/>
</g>
</svg>
