<svg width="40" height="28" viewBox="0 0 40 28" fill="none" xmlns="http://www.w3.org/2000/svg">
<path d="M15.0108 15.5363L6.27957 13.6754V23.2828L6.58065 23.7156L20.4731 27.9567V13.8053L15.0108 15.5363ZM21.1183 12.2473L30.1505 14.0649L40 10.1267L39.914 9.26121L32.172 8.13601L35.6989 1.73107L35.3548 1.08192L20.6452 0L20.2151 0.216383L17.2903 5.62597L13.5054 0.432767L13.0753 0.25966L1.84946 2.07728L1.54839 2.76971L5.76344 8.78516L0 10.17V11.0355L14.9677 14.1947L21.1183 12.2473ZM17.3333 6.88099L30.5376 8.48223L20.9892 11.425L7.39785 9.04482L17.3333 6.88099ZM21.8064 13.7187V28L31.6989 23.2396L31.957 22.8501V14.8006L30.3226 15.4498L21.8064 13.7187Z" fill="#0E90D0"/>
</svg>
