<svg width="31" height="31" viewBox="0 0 31 31" fill="none" xmlns="http://www.w3.org/2000/svg">
<path d="M30.5225 13.2742C30.3332 13.7267 29.9956 14.0641 29.5716 14.3068C29.3328 14.4426 29.0941 14.5743 28.8471 14.6853C28.633 14.7759 28.5507 14.9445 28.4889 15.1461C28.3531 15.6028 28.1513 16.006 27.6779 16.1994C27.6244 16.2241 27.5832 16.2899 27.5544 16.3475C27.5133 16.4257 27.5091 16.5285 27.4556 16.5985C27.2992 16.7959 27.2704 17.0222 27.3033 17.2567C27.3609 17.6517 27.2333 18.0014 27.0728 18.347C27.044 18.4005 27.0234 18.4581 26.9904 18.5075C26.6982 18.9436 26.5335 19.4126 26.5129 19.9474C26.4841 20.5769 26.1424 21.0459 25.6114 21.3627C25.3273 21.5273 25.1668 21.7577 25.0391 22.0539C24.8868 22.3995 24.7057 22.7369 24.4752 23.0331C24.0635 23.5597 23.4954 23.6914 22.8697 23.4527C22.6021 23.354 22.3715 23.3705 22.1122 23.5103C21.8569 23.6502 21.5688 23.7243 21.2971 23.8313C21.2065 23.8683 21.1159 23.9053 21.0336 23.9547C20.659 24.1645 20.305 24.436 19.8686 24.3579C19.7986 24.9092 19.7616 25.4276 19.6669 25.9377C19.5845 26.3944 19.3334 26.7729 19 27.1021C18.9259 27.1802 18.8724 27.3037 18.86 27.4106C18.8024 27.9702 18.5554 28.3816 18.0079 28.5832C17.9296 28.612 17.8597 28.686 17.8144 28.756C17.6332 29.0357 17.4151 29.2661 17.1145 29.4225C17.0446 29.4554 16.991 29.5459 16.954 29.62C16.7605 30.019 16.5217 30.3852 16.1718 30.665C15.7108 31.0353 15.155 31.1011 14.7104 30.8501C14.2658 30.5909 14.0023 30.0931 14.1588 29.5253C14.2946 29.0481 14.0106 28.8629 13.7471 28.6449C13.4301 28.3857 13.072 28.1718 12.7385 27.9331C12.1251 27.4929 12.051 26.7277 12.5491 26.1681C12.6232 26.0858 12.6521 25.9624 12.6973 25.8596C12.7714 25.6827 12.8085 25.4687 12.932 25.3288C13.249 24.9709 13.603 24.6418 13.9612 24.2879C13.7183 23.9958 13.5701 23.6297 13.6154 23.1977C13.6236 23.1483 13.566 23.0907 13.5413 23.0372C13.4507 22.8233 13.3684 22.6052 13.2696 22.3954C13.2284 22.3131 13.1666 22.2144 13.0884 22.1815C12.261 21.8317 11.9152 21.2311 12.0346 20.3424C12.0469 20.256 12.0387 20.1614 12.014 20.075C11.8205 19.462 11.9193 18.8983 12.2939 18.3758C12.3145 18.347 12.331 18.3141 12.3598 18.2729C12.1539 18.096 11.9605 17.952 11.6846 17.878C11.38 17.8039 11.0671 17.6558 10.8325 17.4542C10.6555 17.302 10.569 17.0222 10.4908 16.7836C10.4044 16.5367 10.3714 16.2693 10.3097 16.0142C10.2932 15.9649 10.2315 15.8867 10.1903 15.8826C9.74157 15.862 9.44517 15.537 9.07467 15.3601C8.85237 15.2531 8.61772 15.1708 8.38719 15.0885C8.06608 14.9775 7.73263 14.8911 7.42388 14.7594C6.94223 14.5578 6.7117 14.1505 6.60466 13.6609C6.5882 13.5868 6.56761 13.5169 6.53468 13.377C6.42353 13.4511 6.31238 13.4881 6.26298 13.5622C5.98305 14.0106 5.56726 14.1834 5.06914 14.1587C4.59161 14.134 4.11819 14.0806 3.64889 14.0353C3.54597 14.023 3.41836 14.0106 3.34837 13.9489C3.04374 13.6897 2.66089 13.628 2.31509 13.4758C1.93224 13.303 1.56174 13.0849 1.183 12.8915C0.828968 12.7064 0.701351 12.3485 0.643717 11.9658C0.631367 11.8877 0.602551 11.7807 0.5408 11.7396C-0.101401 11.3076 -0.0890507 10.5588 0.153833 10.0116C0.409067 9.43149 0.639601 8.8267 0.985402 8.30419C1.44647 7.60889 2.04339 7.04524 2.98199 7.10284C3.02727 7.10695 3.07256 7.10284 3.07256 7.10284C3.11784 6.74079 3.16724 6.39519 3.20429 6.04549C3.20841 6.00846 3.18782 5.95909 3.15901 5.93029C2.75969 5.49007 2.78027 4.96756 2.84614 4.43271C2.85849 4.36277 2.85437 4.28048 2.83379 4.21466C2.5909 3.5029 2.84202 2.90634 3.55832 2.67182C4.08526 2.49491 4.64513 2.41674 5.18853 2.29743C5.24204 2.28509 5.29556 2.28097 5.34496 2.26452C6.04068 2.07938 6.57173 2.318 6.99163 2.87754C7.06573 2.97216 7.18512 3.02565 7.28392 3.0997C7.3045 3.0709 7.3292 3.04622 7.3539 3.01742C7.28803 2.94748 7.22628 2.87342 7.15218 2.81171C6.90106 2.59777 6.67876 2.36326 6.60055 2.03001C6.44 1.32236 6.96282 0.635286 7.76145 0.581802C8.11137 0.557116 8.47363 0.676429 8.83179 0.717571C9.14877 0.754599 9.47399 0.791627 9.79509 0.791627C9.90624 0.791627 10.0544 0.701114 10.1244 0.606487C10.5814 0.0140395 11.3512 -0.1711 12.0181 0.17038C12.3927 0.359634 12.5697 0.692885 12.6356 1.09196C12.6521 1.17425 12.6521 1.27299 12.6973 1.33059C13.0061 1.71733 12.9855 2.14109 12.8661 2.58131C12.8538 2.62245 12.8455 2.66771 12.825 2.76234C13.1543 2.60188 13.4877 2.5772 13.673 2.22749C13.9365 1.72555 14.5293 1.5075 15.1303 1.69264C15.4926 1.80784 15.8343 1.98886 16.2089 2.15343C16.3118 2.02178 16.4271 1.87367 16.5464 1.72967C17.2627 0.886254 18.2425 0.878025 18.967 1.71321C19.1029 1.87367 19.2223 2.05058 19.3417 2.22338C19.4981 2.44966 19.6545 2.65125 19.8933 2.80759C20.3791 3.1285 20.4779 3.91021 20.1444 4.49442C20.095 4.57671 20.0415 4.65488 19.9633 4.77831C20.272 4.75773 20.5314 4.88116 20.8278 4.70836C21.3053 4.43271 21.9022 4.58082 22.3509 5.04573C22.5238 5.23087 22.6803 5.35018 22.9561 5.35841C23.2978 5.37075 23.5654 5.58881 23.7959 5.848C23.8494 5.9056 23.9359 5.97554 24.01 5.97143C24.4381 5.95909 24.788 6.136 25.0968 6.41165C25.2203 6.52273 25.3479 6.58033 25.5208 6.58445C25.846 6.58856 26.1712 6.62148 26.4923 6.6585C27.081 6.72433 27.5544 7.00821 27.9043 7.47723C28.0855 7.71586 28.246 7.97505 28.386 8.24248C28.5013 8.45642 28.6453 8.58807 28.8882 8.60864C28.987 8.61687 29.0817 8.64567 29.1764 8.67036C30.3538 8.95424 30.8972 9.62074 30.9877 10.8262C31.0536 11.6861 30.8478 12.4925 30.5225 13.2742Z" fill="#0E90D0"/>
</svg>
