<svg width="32" height="30" viewBox="0 0 32 30" fill="none" xmlns="http://www.w3.org/2000/svg">
<path d="M0.999968 0C0.447986 0 0 0.448 0 1C0 1.552 0.447986 2 0.999968 2H4.89184L5.72982 5.1385C5.73532 5.1785 5.74332 5.2185 5.75382 5.258L8.95371 17.218C8.95621 17.228 8.96021 17.2375 8.96321 17.2475L10.0342 21.258C10.1502 21.696 10.5462 22 11.0001 22H26.9996C27.5516 22 27.9996 21.552 27.9996 21C27.9996 20.448 27.5516 20 26.9996 20H11.7681L11.2066 17.896L29.0496 16.998C29.5116 16.974 29.8995 16.636 29.9835 16.18L31.9835 5.18C32.0375 4.886 31.9575 4.586 31.7675 4.36C31.5775 4.132 31.2955 4 30.9995 4H7.49626L6.62629 0.742C6.51029 0.304 6.1143 0 5.66032 0H0.999968ZM12.9996 8C13.5516 8 13.9996 8.448 13.9996 9V13C13.9996 13.552 13.5516 14 12.9996 14C12.4476 14 11.9996 13.552 11.9996 13V9C11.9996 8.448 12.4476 8 12.9996 8ZM18.9989 8C19.5509 8 19.9989 8.448 19.9989 9V13C19.9989 13.552 19.5509 14 18.9989 14C18.4469 14 17.9989 13.552 17.9989 13V9C17.9989 8.448 18.4469 8 18.9989 8ZM24.9987 8C25.5507 8 25.9987 8.448 25.9987 9V13C25.9987 13.552 25.5507 14 24.9987 14C24.4467 14 23.9987 13.552 23.9987 13V9C23.9987 8.448 24.4467 8 24.9987 8ZM12.9996 24C11.3426 24 9.99968 25.343 9.99968 27C9.99968 28.657 11.3426 30 12.9996 30C14.6565 30 15.9995 28.657 15.9995 27C15.9995 25.343 14.6565 24 12.9996 24ZM24.9987 24C23.3418 24 21.9988 25.343 21.9988 27C21.9988 28.657 23.3418 30 24.9987 30C26.6556 30 27.9986 28.657 27.9986 27C27.9986 25.343 26.6556 24 24.9987 24Z" fill="#0E90D0"/>
</svg>
