<svg width="26" height="20" viewBox="0 0 26 20" fill="none" xmlns="http://www.w3.org/2000/svg">
<path d="M18.875 7C18.875 3.21875 14.8359 0.125 9.9375 0.125C4.99609 0.125 1 3.21875 1 7C1 8.50391 1.60156 9.83594 2.63281 10.9531C2.03125 12.2852 1.08594 13.3164 1.08594 13.3164C1 13.4023 0.957031 13.5742 1 13.7031C1.08594 13.832 1.17188 13.875 1.34375 13.875C2.89062 13.875 4.17969 13.3594 5.125 12.8008C6.5 13.4883 8.17578 13.875 9.9375 13.875C14.8359 13.875 18.875 10.8242 18.875 7ZM24.1172 16.4531C25.1055 15.3359 25.75 14.0039 25.75 12.5C25.75 9.66406 23.4297 7.17188 20.1641 6.14062C20.207 6.44141 20.25 6.74219 20.25 7C20.25 11.5547 15.6094 15.25 9.9375 15.25C9.46484 15.25 8.99219 15.25 8.5625 15.207C9.89453 17.6562 13.0742 19.375 16.8125 19.375C18.5742 19.375 20.207 18.9883 21.582 18.3008C22.5273 18.8594 23.8164 19.375 25.4062 19.375C25.5352 19.375 25.6641 19.332 25.707 19.2031C25.75 19.0742 25.75 18.9023 25.6211 18.8164C25.6211 18.8164 24.6758 17.7852 24.1172 16.4531Z" fill="white"/>
</svg>
