<svg width="46" height="32" viewBox="0 0 46 32" fill="none" xmlns="http://www.w3.org/2000/svg">
<path d="M1.46809 0C0.63617 0 0 0.693333 0 1.6V30.4C0 31.3067 0.63617 32 1.46809 32H44.5319C45.3638 32 46 31.3067 46 30.4V1.6C46 0.693333 45.3638 0 44.5319 0H1.46809ZM5.48085 3.2H40.4702L23 19.2L5.48085 3.2ZM2.93617 5.01331L14.3872 15.52L2.93617 26.7733V5.01331ZM43.0638 5.01331V26.7733L31.6128 15.52L43.0638 5.01331ZM16.6872 17.6L22.0702 22.5066C22.6085 22.9866 23.4404 22.9866 23.9787 22.5066L29.3617 17.6L40.7638 28.7466H5.28511L16.6872 17.6Z" fill="white"/>
</svg>
