<svg width="32" height="32" viewBox="0 0 32 32" fill="none" xmlns="http://www.w3.org/2000/svg">
<path d="M16.0032 25.9847C14.3157 25.982 12.6857 25.3724 11.4123 24.2674C10.1389 23.1625 9.30752 21.6365 9.07059 19.9693L8.08597 13.0918C8.01796 12.7143 7.97766 12.3323 7.9654 11.9489C7.9654 9.82174 8.81223 7.78171 10.3196 6.27759C11.827 4.77346 13.8714 3.92845 16.0032 3.92845C18.1349 3.92845 20.1793 4.77346 21.6867 6.27759C23.1941 7.78171 24.0409 9.82174 24.0409 11.9489C24.0286 12.3323 23.9883 12.7143 23.9203 13.0918L22.9357 19.9693C22.6988 21.6365 21.8674 23.1625 20.594 24.2674C19.3206 25.3724 17.6906 25.982 16.0032 25.9847ZM27.9392 10.2646C27.5148 7.41113 26.0771 4.80482 23.8879 2.92068C21.6988 1.03653 18.9041 0 16.0132 0C13.1223 0 10.3276 1.03653 8.13845 2.92068C5.94934 4.80482 4.51157 7.41113 4.08719 10.2646C2.74088 10.7215 1.59979 11.6386 0.865603 12.8539C0.131411 14.0691 -0.148612 15.5042 0.0750264 16.9055C0.298665 18.3069 1.01156 19.5842 2.08773 20.5118C3.16389 21.4393 4.53402 21.9574 5.95597 21.9744V11.9489C5.95597 9.28995 7.01451 6.73991 8.89872 4.85976C10.7829 2.9796 13.3385 1.92334 16.0032 1.92334C18.6678 1.92334 21.2234 2.9796 23.1076 4.85976C24.9918 6.73991 26.0503 9.28995 26.0503 11.9489V25.9847C26.0503 27.0482 25.6269 28.0683 24.8732 28.8203C24.1195 29.5724 23.0973 29.9949 22.0315 29.9949H20.022L18.0126 27.9898H11.9843V32H22.0315C23.6303 32 25.1636 31.3662 26.2941 30.2382C27.4246 29.1101 28.0598 27.58 28.0598 25.9847V21.6135C29.2261 21.1838 30.2307 20.4048 30.936 19.3831C31.6414 18.3615 32.0129 17.1472 31.9997 15.9067C31.9865 14.6662 31.5892 13.4601 30.8623 12.4536C30.1354 11.4471 29.1144 10.6896 27.9392 10.2847V10.2646Z" fill="#0E90D0"/>
</svg>
