<svg width="33" height="33" viewBox="0 0 33 33" fill="none" xmlns="http://www.w3.org/2000/svg">
<path d="M32.1066 8.1215C32.1066 8.1215 31.0456 3.04984 26.4595 1.26791C24.3033 0.445483 20.3674 0.0342679 16.5 0C12.6326 0.0342679 8.69671 0.445483 6.54054 1.26791C1.9544 3.04984 0.893422 8.1215 0.893422 8.1215C0.208923 11 -0.0306521 13.9128 0.00357283 16.4829C-0.0306521 19.0872 0.174698 22 0.893422 24.8785C0.893422 24.8785 1.9544 29.9502 6.54054 31.7321C8.69671 32.5545 12.6326 32.9657 16.5 33C20.3674 32.9657 24.3033 32.5888 26.4595 31.7321C31.0456 29.9502 32.1066 24.8785 32.1066 24.8785C32.7911 22 33.0307 19.0872 32.9964 16.5171C33.0307 13.9128 32.8253 11 32.1066 8.1215ZM22.8316 22.6854C22.8316 23.2336 22.4551 23.6791 21.9418 23.6791H11.0925C10.6133 23.6791 10.2026 23.2336 10.2026 22.6854L10.1342 15.3863C10.1342 14.9065 10.5791 14.4953 11.1267 14.4953H12.9748V12.8162C12.9748 10.8629 14.5492 9.2866 16.5 9.2866C18.4508 9.2866 20.0252 10.8629 20.0252 12.8162V14.4953H21.8733C22.4209 14.4953 22.8658 14.8723 22.8658 15.3863L22.8316 22.6854Z" fill="#0E90D0"/>
</svg>
