<svg width="23" height="24" viewBox="0 0 23 24" fill="none" xmlns="http://www.w3.org/2000/svg">
<path d="M7.90625 10.5781H15.0938C15.4531 10.5781 15.8125 10.2637 15.8125 9.85938V9.14062C15.8125 8.78125 15.4531 8.42188 15.0938 8.42188H7.90625C7.50195 8.42188 7.1875 8.78125 7.1875 9.14062V9.85938C7.1875 10.2637 7.50195 10.5781 7.90625 10.5781ZM7.1875 14.1719C7.1875 14.5762 7.50195 14.8906 7.90625 14.8906H15.0938C15.4531 14.8906 15.8125 14.5762 15.8125 14.1719V13.4531C15.8125 13.0938 15.4531 12.7344 15.0938 12.7344H7.90625C7.50195 12.7344 7.1875 13.0938 7.1875 13.4531V14.1719ZM11.5 19.6523C10.7363 19.6523 10.0176 19.4277 9.38867 18.9336L0 12.1504V21.7188C0 22.9316 0.943359 23.875 2.15625 23.875H20.8438C22.0117 23.875 23 22.9316 23 21.7188V12.1504L13.5664 18.9336C12.9375 19.4277 12.2188 19.6523 11.5 19.6523ZM22.1465 8.19727C21.7422 7.92773 21.3828 7.61328 20.8438 7.20898V5.1875C20.8438 4.01953 19.8555 3.03125 18.6875 3.03125H15.1836C15.0488 2.94141 14.9141 2.85156 14.7793 2.76172C14.0156 2.22266 12.5332 0.875 11.5 0.875C10.4219 0.875 8.93945 2.22266 8.17578 2.76172C8.04102 2.85156 7.90625 2.94141 7.77148 3.03125H4.3125C3.09961 3.03125 2.15625 4.01953 2.15625 5.1875V7.20898C1.57227 7.61328 1.21289 7.92773 0.808594 8.19727C0.314453 8.60156 0 9.23047 0 9.9043V10.3984L4.3125 13.498V5.1875H18.6875V13.498L23 10.3984V9.9043C23 9.23047 22.6855 8.64648 22.1465 8.19727Z" fill="#1D3262"/>
</svg>
