<svg width="31" height="32" viewBox="0 0 31 32" fill="none" xmlns="http://www.w3.org/2000/svg">
<path d="M15.5 6.5C12.1875 6.5 9.5 9.1875 9.5 12.5C9.5 15.8125 12.1875 18.5 15.5 18.5C18.8125 18.5 21.5 15.8125 21.5 12.5C21.5 9.1875 18.8125 6.5 15.5 6.5ZM15.5 15.5C13.8125 15.5 12.5 14.1875 12.5 12.5C12.5 10.875 13.8125 9.5 15.5 9.5C17.125 9.5 18.5 10.875 18.5 12.5C18.5 14.1875 17.125 15.5 15.5 15.5ZM15.5 0.5C6.9375 0.5 0 7.4375 0 16C0 24.5625 6.9375 31.5 15.5 31.5C24.0625 31.5 31 24.5625 31 16C31 7.4375 24.0625 0.5 15.5 0.5ZM15.5 28.5C12.375 28.5 9.5 27.375 7.3125 25.5C8.25 24.0625 9.875 23.0625 11.6875 23.0625C13 23.4375 14.25 23.625 15.5 23.625C16.6875 23.625 17.9375 23.4375 19.25 23.0625C21.0625 23.125 22.6875 24.0625 23.625 25.5C21.4375 27.375 18.5625 28.5 15.5 28.5ZM25.625 23.25C24.125 21.3125 21.75 20 19.0625 20C18.4375 20 17.4375 20.625 15.5 20.625C13.5 20.625 12.5 20 11.875 20C9.1875 20 6.8125 21.3125 5.3125 23.25C3.8125 21.25 3 18.75 3 16C3 9.125 8.5625 3.5 15.5 3.5C22.375 3.5 28 9.125 28 16C28 18.75 27.125 21.25 25.625 23.25Z" fill="#0E90D0"/>
</svg>
