<svg viewBox="0 0 39 39"><path d="M23.8 19.5c.4 0 .7-.2.9-.5.2-.3.3-.9.3-1.6v-2.5c0-.7-.1-1.2-.3-1.6-.2-.4-.5-.5-.9-.5s-.7.2-.9.5c-.2.3-.3.8-.3 1.5v2.5c0 .7.1 1.3.3 1.6.2.4.5.6.9.6zm-1.7 5.4c-.4 0-.6.1-.8.4-.2.3-.3.7-.3 1.2s.1.9.3 1.2c.2.3.5.4.8.4.4 0 .6-.1.8-.4.2-.3.3-.7.3-1.3 0-.5-.1-.9-.3-1.2-.1-.2-.4-.3-.8-.3zm-10.7 2c-.2.1-.3.3-.3.6 0 .2.1.4.2.5.1.1.3.2.6.2.2 0 .4-.1.6-.2.2-.1.3-.2.4-.4v-.9h-.6c-.4-.1-.7 0-.9.2z"/><path d="M35.3 23l3.7-3.5-3.5-3.1 1.9-4.5-4.2-1.4V5.6l-4.4.5-1.9-4.7-4 2.1L19.4 0l-2.8 3.5-4.7-2.1-1.2 4.5-5.1-.3.5 4.7L1.4 12l2.1 4L0 19.5l3.5 3.1L1.4 27l4.4 1.4-.2 4.9 4.7-.5 1.6 4.7 4.2-2.1 3.3 3.5 3-3.5 4.4 2.1 1.4-4.5 4.9.2-.2-4.7 4.4-1.6-2-3.9zm-21.2 5.9H13c0-.1-.1-.2-.1-.5-.3.4-.8.5-1.3.5s-.9-.1-1.2-.4c-.3-.3-.5-.6-.5-1 0-.5.2-.9.6-1.2.4-.3.9-.4 1.6-.4h.7v-.3c0-.2-.1-.4-.2-.6-.1-.2-.3-.2-.6-.2-.2 0-.4.1-.6.2-.2.1-.2.3-.2.5h-1.1c0-.3.1-.5.3-.7.2-.2.4-.4.7-.5.3-.1.6-.2 1-.2.6 0 1 .1 1.3.4.3.3.5.7.5 1.2v2.2c0 .3.1.7.2 1zm4.9 0h-1.1v-3.1c0-.3-.1-.5-.2-.7-.1-.1-.3-.2-.6-.2-.4 0-.8.2-1 .6v3.4H15v-4.8h1v.6c.4-.4.8-.6 1.4-.6 1 0 1.5.6 1.5 1.7v3.1zm.2-7.8h-6.9v-1.5l3.2-3.4c.8-.9 1.2-1.6 1.2-2.1 0-.4-.1-.8-.3-1-.2-.2-.5-.3-.8-.3-.4 0-.6.2-.9.5-.2.3-.3.7-.3 1.1H12c0-.6.2-1.2.5-1.7s.7-.9 1.3-1.2 1.1-.4 1.8-.4c1.1 0 1.9.2 2.5.7.6.5.9 1.2.9 2.1 0 .4-.1.8-.2 1.1-.1.4-.4.8-.7 1.2-.3.4-.8 1-1.5 1.6l-1.3 1.5h3.9v1.8zm1.1-5.9c0-1.3.3-2.4.9-3.1.6-.7 1.5-1.1 2.6-1.1s2 .4 2.6 1.1c.6.7.9 1.8.9 3.1V17c0 1.3-.3 2.4-.9 3.1-.6.7-1.5 1.1-2.5 1.1-1.1 0-2-.4-2.6-1.1-.6-.7-.9-1.8-.9-3.1v-1.8zm3.8 12.6c-.2.4-.4.7-.8.9-.3.2-.7.3-1.2.3-.7 0-1.2-.2-1.6-.7-.4-.5-.6-1.1-.6-1.8v-.1c0-.5.1-.9.3-1.3.2-.4.4-.7.8-.9.3-.2.7-.3 1.2-.3.6 0 1.2.2 1.6.6.4.4.6 1 .7 1.7v.3c-.2.5-.2.9-.4 1.3zm4.4.8c-.4.3-.8.4-1.4.4-.4 0-.7-.1-1-.2-.3-.1-.5-.3-.7-.6-.2-.2-.3-.5-.3-.8h1c0 .3.1.5.3.6.2.1.4.2.7.2.3 0 .5-.1.6-.2.1-.1.2-.3.2-.4 0-.2-.1-.3-.2-.4-.2-.1-.4-.2-.8-.3-.4-.1-.7-.2-.9-.3-.5-.3-.8-.6-.8-1.1 0-.4.2-.8.5-1 .3-.3.8-.4 1.3-.4.6 0 1 .1 1.4.4.4.3.5.7.5 1.1h-1.1c0-.2-.1-.4-.2-.5-.2-.1-.4-.2-.6-.2-.2 0-.4.1-.6.2-.1.1-.2.3-.2.4 0 .2.1.3.2.4.1.1.4.2.8.3.4.1.8.2 1 .3.2.1.4.3.5.5.1.2.2.4.2.7.1.3-.1.6-.4.9z"/></svg>