<svg width="31" height="31"><path d="M30.523 13.274c-.19.453-.527.79-.951 1.033a8.645 8.645 0 01-.725.378c-.214.09-.296.26-.358.461-.136.457-.338.86-.811 1.053-.054.025-.095.09-.124.148-.04.079-.045.181-.098.252-.157.197-.186.423-.153.658.058.395-.07.744-.23 1.09-.029.053-.05.111-.083.16a2.71 2.71 0 00-.477 1.44c-.029.63-.37 1.099-.902 1.416-.284.164-.444.395-.572.69a4.622 4.622 0 01-.564.98c-.412.527-.98.658-1.605.42a.851.851 0 00-.758.057c-.255.14-.543.214-.815.321-.09.037-.181.074-.263.124-.375.21-.729.481-1.165.403-.07.551-.107 1.07-.202 1.58-.083.456-.334.835-.667 1.164a.575.575 0 00-.14.309c-.058.56-.305.97-.852 1.172a.435.435 0 00-.194.173c-.18.28-.399.51-.7.666-.07.033-.123.124-.16.198-.194.399-.432.765-.782 1.045-.461.37-1.017.436-1.462.185-.444-.26-.708-.757-.551-1.325.136-.477-.148-.662-.412-.88-.317-.26-.675-.473-1.008-.712-.614-.44-.688-1.205-.19-1.765.074-.082.103-.206.148-.308.074-.177.112-.391.235-.531.317-.358.671-.687 1.03-1.041a1.434 1.434 0 01-.347-1.09c.009-.05-.049-.107-.074-.16-.09-.215-.173-.433-.271-.643-.042-.082-.103-.18-.182-.213-.827-.35-1.173-.95-1.053-1.84a.657.657 0 00-.021-.267c-.194-.613-.095-1.177.28-1.7.02-.028.037-.06.066-.102-.206-.177-.4-.321-.675-.395a2.104 2.104 0 01-.853-.424c-.177-.152-.263-.432-.341-.67-.087-.247-.12-.515-.181-.77-.017-.05-.079-.127-.12-.131-.448-.021-.745-.346-1.115-.523a6.725 6.725 0 00-.688-.271c-.32-.112-.654-.198-.963-.33-.482-.201-.712-.609-.82-1.098-.016-.074-.036-.144-.07-.284-.11.074-.222.111-.271.185-.28.449-.696.621-1.194.597-.477-.025-.95-.078-1.42-.124-.103-.012-.23-.024-.3-.086-.305-.26-.688-.321-1.034-.473-.383-.173-.753-.391-1.132-.585-.354-.185-.482-.543-.54-.925-.012-.078-.04-.185-.102-.226-.642-.432-.63-1.181-.387-1.728.255-.58.486-1.185.831-1.708.461-.695 1.058-1.259 1.997-1.201.045.004.09 0 .09 0 .046-.362.095-.708.132-1.058a.158.158 0 00-.045-.115c-.4-.44-.379-.962-.313-1.497a.486.486 0 00-.012-.218c-.243-.712.008-1.309.724-1.543.527-.177 1.087-.255 1.63-.375.054-.012.108-.016.157-.032.696-.186 1.227.053 1.647.613.074.094.193.148.292.222.02-.03.045-.054.07-.083-.066-.07-.128-.144-.202-.205-.25-.214-.473-.449-.551-.782C6.44 1.322 6.963.635 7.76.582c.35-.025.713.094 1.07.136a8.4 8.4 0 00.964.074c.111 0 .26-.09.33-.186C10.58.014 11.35-.17 12.017.17c.375.19.552.523.618.922.016.082.016.181.061.239.31.386.289.81.17 1.25-.013.041-.022.087-.042.181.33-.16.663-.185.848-.535.264-.501.856-.72 1.457-.534.363.115.704.296 1.079.46.103-.131.218-.28.337-.423.717-.844 1.697-.852 2.421-.017.136.16.255.338.375.51.156.227.313.428.551.585.486.32.585 1.102.251 1.686-.049.083-.102.16-.18.284.308-.02.567.103.864-.07.477-.275 1.074-.127 1.523.338.173.185.33.304.605.312.342.013.61.23.84.49.053.058.14.128.214.123.428-.012.778.165 1.087.44a.616.616 0 00.424.173c.325.005.65.037.971.075.589.065 1.062.35 1.412.818.181.239.342.498.482.765.115.214.26.346.502.367.099.008.194.037.288.061 1.178.284 1.721.95 1.812 2.156.066.86-.14 1.666-.465 2.448z"/></svg>