<svg width="26" height="20"><path d="M18.875 7c0-3.781-4.04-6.875-8.938-6.875C4.997.125 1 3.219 1 7c0 1.504.602 2.836 1.633 3.953-.602 1.332-1.547 2.363-1.547 2.363a.412.412 0 00-.086.387c.086.129.172.172.344.172 1.547 0 2.836-.516 3.781-1.074 1.375.687 3.05 1.074 4.813 1.074 4.898 0 8.937-3.05 8.937-6.875zm5.242 9.453c.988-1.117 1.633-2.45 1.633-3.953 0-2.836-2.32-5.328-5.586-6.36.043.301.086.602.086.86 0 4.555-4.64 8.25-10.313 8.25-.472 0-.945 0-1.374-.043 1.332 2.45 4.511 4.168 8.25 4.168 1.761 0 3.394-.387 4.769-1.074.945.558 2.234 1.074 3.824 1.074.13 0 .258-.043.301-.172.043-.129.043-.3-.086-.387 0 0-.945-1.03-1.504-2.363z"/></svg>