<svg width="32" height="32"><path d="M16.003 25.985a7.022 7.022 0 01-4.59-1.718A6.993 6.993 0 019.07 19.97l-.985-6.877a7.864 7.864 0 01-.12-1.143c0-2.127.846-4.167 2.354-5.671a8.047 8.047 0 0111.367 0 8.012 8.012 0 012.354 5.67 7.87 7.87 0 01-.12 1.144l-.985 6.877a6.993 6.993 0 01-2.342 4.298 7.022 7.022 0 01-4.59 1.718zm11.936-15.72a12.023 12.023 0 00-4.051-7.344 12.072 12.072 0 00-15.75 0 12.024 12.024 0 00-4.05 7.344 6.025 6.025 0 00-3.222 2.589 6.004 6.004 0 001.222 7.658 6.036 6.036 0 003.868 1.462V11.95c0-2.66 1.059-5.21 2.943-7.09a10.058 10.058 0 017.104-2.936c2.665 0 5.22 1.057 7.105 2.937a10.015 10.015 0 012.942 7.089v14.036a4.006 4.006 0 01-1.177 2.835 4.023 4.023 0 01-2.841 1.175h-2.01l-2.01-2.005h-6.028V32h10.048a6.035 6.035 0 004.262-1.762 6.01 6.01 0 001.766-4.253v-4.372a6.026 6.026 0 002.876-2.23 6.006 6.006 0 00-.074-6.93 6.027 6.027 0 00-2.923-2.168v-.02z"/></svg>