<svg width="33" height="33"><path d="M32.107 8.121s-1.061-5.071-5.648-6.853C24.303.445 20.367.034 16.5 0c-3.867.034-7.803.445-9.96 1.268C1.955 3.05.894 8.12.894 8.12.21 11-.03 13.913.003 16.483c-.034 2.604.172 5.517.89 8.395 0 0 1.061 5.072 5.648 6.854 2.156.822 6.092 1.234 9.959 1.268 3.867-.034 7.803-.411 9.96-1.268 4.586-1.782 5.647-6.854 5.647-6.854.684-2.878.924-5.79.89-8.36.034-2.605-.172-5.518-.89-8.397zm-9.275 14.564c0 .549-.377.994-.89.994h-10.85c-.479 0-.89-.445-.89-.994l-.068-7.299c0-.48.445-.89.993-.89h1.848v-1.68a3.522 3.522 0 013.525-3.53 3.522 3.522 0 013.525 3.53v1.68h1.848c.548 0 .993.376.993.89l-.034 7.3z"/></svg>