<svg width="23" height="24"><path d="M7.906 10.578h7.188c.36 0 .719-.314.719-.719v-.718c0-.36-.36-.72-.72-.72H7.907c-.404 0-.718.36-.718.72v.718a.71.71 0 00.718.72zm-.718 3.594a.71.71 0 00.718.719h7.188a.74.74 0 00.719-.72v-.718c0-.36-.36-.719-.72-.719H7.907c-.404 0-.718.36-.718.72v.718zm4.312 5.48a3.34 3.34 0 01-2.111-.718L0 12.15v9.569c0 1.213.943 2.156 2.156 2.156h18.688A2.157 2.157 0 0023 21.719V12.15l-9.434 6.784a3.306 3.306 0 01-2.066.718zM22.146 8.197c-.404-.27-.763-.584-1.302-.988V5.188c0-1.168-.989-2.157-2.157-2.157h-3.503l-.405-.27C14.016 2.224 12.533.876 11.5.876c-1.078 0-2.56 1.348-3.324 1.887l-.405.27H4.313a2.157 2.157 0 00-2.157 2.155V7.21c-.584.404-.943.719-1.347.988A2.221 2.221 0 000 9.904v.494l4.313 3.1v-8.31h14.375v8.31l4.312-3.1v-.494c0-.674-.314-1.258-.854-1.707z"/></svg>