<svg width="31" height="32"><path d="M15.5 6.5c-3.313 0-6 2.688-6 6 0 3.313 2.688 6 6 6 3.313 0 6-2.688 6-6 0-3.313-2.688-6-6-6zm0 9c-1.688 0-3-1.313-3-3a3 3 0 013-3c1.625 0 3 1.375 3 3a3 3 0 01-3 3zm0-15C6.937.5 0 7.438 0 16c0 8.563 6.938 15.5 15.5 15.5C24.063 31.5 31 24.562 31 16 31 7.437 24.062.5 15.5.5zm0 28c-3.125 0-6-1.125-8.188-3 .938-1.438 2.563-2.438 4.375-2.438 1.313.375 2.563.563 3.813.563 1.188 0 2.438-.188 3.75-.563 1.813.063 3.438 1 4.375 2.438a12.51 12.51 0 01-8.125 3zm10.125-5.25c-1.5-1.938-3.875-3.25-6.563-3.25-.625 0-1.625.625-3.562.625-2 0-3-.625-3.625-.625-2.688 0-5.063 1.313-6.563 3.25C3.813 21.25 3 18.75 3 16 3 9.125 8.563 3.5 15.5 3.5 22.375 3.5 28 9.125 28 16c0 2.75-.875 5.25-2.375 7.25z"/></svg>