<svg width="20" height="20"><path d="M16.328 2.96A9.386 9.386 0 009.582.126C4.34.125.043 4.422.043 9.665a9.55 9.55 0 001.289 4.769L0 19.375l5.027-1.29c1.418.731 2.965 1.161 4.555 1.161 5.285 0 9.668-4.297 9.668-9.539 0-2.578-1.117-4.941-2.922-6.746zM9.582 17.614a7.947 7.947 0 01-4.039-1.117l-.258-.172-3.008.817.817-2.922-.215-.301a8.266 8.266 0 01-1.203-4.254c0-4.34 3.566-7.906 7.949-7.906 2.105 0 4.082.816 5.586 2.32 1.504 1.504 2.406 3.48 2.406 5.629 0 4.34-3.652 7.906-8.035 7.906zm4.383-5.93a53.059 53.059 0 00-1.633-.773c-.215-.086-.387-.129-.559.13-.128.214-.601.773-.73.944-.172.13-.3.172-.516.043-1.418-.687-2.32-1.246-3.265-2.836-.258-.43.258-.386.687-1.289.086-.172.043-.3 0-.43-.043-.128-.558-1.288-.73-1.761-.215-.473-.387-.43-.559-.43h-.43a.806.806 0 00-.644.301c-.215.258-.816.816-.816 1.977 0 1.203.816 2.32.945 2.492.129.129 1.676 2.535 4.082 3.566 1.504.688 2.105.73 2.879.602.43-.043 1.375-.559 1.59-1.117.214-.559.214-1.032.129-1.118-.043-.129-.215-.171-.43-.3z"/></svg>