<svg class="svg-sprites" id="skin-sprite" xmlns="http://www.w3.org/2000/svg" xmlns:xlink="http://www.w3.org/1999/xlink">
    <symbol viewBox="0 0 32 30" id="z-cart"><path d="M1 0a1 1 0 000 2h3.892l.838 3.138a.85.85 0 00.024.12l3.2 11.96c.002.01.006.02.01.03l1.07 4.01A.998.998 0 0011 22h16a1 1 0 000-2H11.768l-.561-2.104 17.843-.898a1 1 0 00.933-.818l2-11A1 1 0 0031 4H7.497L6.626.742A.998.998 0 005.66 0H1zm12 8a1 1 0 011 1v4a1 1 0 01-2 0V9a1 1 0 011-1zm5.999 0a1 1 0 011 1v4a1 1 0 01-2 0V9a1 1 0 011-1zm6 0a1 1 0 011 1v4a1 1 0 01-2 0V9a1 1 0 011-1zm-12 16a3 3 0 100 6 3 3 0 000-6zm12 0a3 3 0 100 6 3 3 0 000-6z"/></symbol>
    <symbol viewBox="0 0 26 20" id="z-chat"><path d="M18.875 7c0-3.781-4.04-6.875-8.938-6.875C4.997.125 1 3.219 1 7c0 1.504.602 2.836 1.633 3.953-.602 1.332-1.547 2.363-1.547 2.363a.412.412 0 00-.086.387c.086.129.172.172.344.172 1.547 0 2.836-.516 3.781-1.074 1.375.687 3.05 1.074 4.813 1.074 4.898 0 8.937-3.05 8.937-6.875zm5.242 9.453c.988-1.117 1.633-2.45 1.633-3.953 0-2.836-2.32-5.328-5.586-6.36.043.301.086.602.086.86 0 4.555-4.64 8.25-10.313 8.25-.472 0-.945 0-1.374-.043 1.332 2.45 4.511 4.168 8.25 4.168 1.761 0 3.394-.387 4.769-1.074.945.558 2.234 1.074 3.824 1.074.13 0 .258-.043.301-.172.043-.129.043-.3-.086-.387 0 0-.945-1.03-1.504-2.363z"/></symbol>
    <symbol viewBox="0 0 20 16" id="z-menu"><rect width="20" height="2" rx="1"/><path d="M0 8a1 1 0 011-1h11a1 1 0 110 2H1a1 1 0 01-1-1zm16 0a1 1 0 011-1h2a1 1 0 110 2h-2a1 1 0 01-1-1z"/><rect y="14" width="20" height="2" rx="1"/></symbol>
    <symbol viewBox="0 0 16 16" id="z-phone"><path d="M15.531 11.313l-3.5-1.5a.905.905 0 00-.312-.063.76.76 0 00-.563.281l-1.562 1.906a11.597 11.597 0 01-5.531-5.53l1.906-1.563a.774.774 0 00.281-.594.885.885 0 00-.063-.281l-1.5-3.5A.79.79 0 003.97 0c-.031 0-.094.031-.156.031l-3.25.75A.733.733 0 000 1.5 14.47 14.47 0 0014.5 16a.733.733 0 00.719-.563l.75-3.25v-.156a.817.817 0 00-.438-.719z"/></symbol>
    <symbol viewBox="0 0 31 32" id="z-user"><path d="M15.5 6.5c-3.313 0-6 2.688-6 6 0 3.313 2.688 6 6 6 3.313 0 6-2.688 6-6 0-3.313-2.688-6-6-6zm0 9c-1.688 0-3-1.313-3-3a3 3 0 013-3c1.625 0 3 1.375 3 3a3 3 0 01-3 3zm0-15C6.937.5 0 7.438 0 16c0 8.563 6.938 15.5 15.5 15.5C24.063 31.5 31 24.562 31 16 31 7.437 24.062.5 15.5.5zm0 28c-3.125 0-6-1.125-8.188-3 .938-1.438 2.563-2.438 4.375-2.438 1.313.375 2.563.563 3.813.563 1.188 0 2.438-.188 3.75-.563 1.813.063 3.438 1 4.375 2.438a12.51 12.51 0 01-8.125 3zm10.125-5.25c-1.5-1.938-3.875-3.25-6.563-3.25-.625 0-1.625.625-3.562.625-2 0-3-.625-3.625-.625-2.688 0-5.063 1.313-6.563 3.25C3.813 21.25 3 18.75 3 16 3 9.125 8.563 3.5 15.5 3.5 22.375 3.5 28 9.125 28 16c0 2.75-.875 5.25-2.375 7.25z"/></symbol>
    <symbol viewBox="0 0 20 20" id="z-whatsapp"><path d="M16.328 2.96A9.386 9.386 0 009.582.126C4.34.125.043 4.422.043 9.665a9.55 9.55 0 001.289 4.769L0 19.375l5.027-1.29c1.418.731 2.965 1.161 4.555 1.161 5.285 0 9.668-4.297 9.668-9.539 0-2.578-1.117-4.941-2.922-6.746zM9.582 17.614a7.947 7.947 0 01-4.039-1.117l-.258-.172-3.008.817.817-2.922-.215-.301a8.266 8.266 0 01-1.203-4.254c0-4.34 3.566-7.906 7.949-7.906 2.105 0 4.082.816 5.586 2.32 1.504 1.504 2.406 3.48 2.406 5.629 0 4.34-3.652 7.906-8.035 7.906zm4.383-5.93a53.059 53.059 0 00-1.633-.773c-.215-.086-.387-.129-.559.13-.128.214-.601.773-.73.944-.172.13-.3.172-.516.043-1.418-.687-2.32-1.246-3.265-2.836-.258-.43.258-.386.687-1.289.086-.172.043-.3 0-.43-.043-.128-.558-1.288-.73-1.761-.215-.473-.387-.43-.559-.43h-.43a.806.806 0 00-.644.301c-.215.258-.816.816-.816 1.977 0 1.203.816 2.32.945 2.492.129.129 1.676 2.535 4.082 3.566 1.504.688 2.105.73 2.879.602.43-.043 1.375-.559 1.59-1.117.214-.559.214-1.032.129-1.118-.043-.129-.215-.171-.43-.3z"/></symbol>
</svg>